<mxfile host="Electron" modified="2023-10-30T10:34:27.936Z" agent="Mozilla/5.0 (X11; Linux x86_64) AppleWebKit/537.36 (KHTML, like Gecko) draw.io/22.0.3 Chrome/114.0.5735.289 Electron/25.8.4 Safari/537.36" etag="by-umOUSzuN47Nop5dYX" version="22.0.3" type="device">
  <diagram name="Page-1" id="2YBvvXClWsGukQMizWep">
    <mxGraphModel dx="2187" dy="788" grid="0" gridSize="10" guides="1" tooltips="1" connect="1" arrows="1" fold="1" page="1" pageScale="1" pageWidth="850" pageHeight="1100" math="0" shadow="0">
      <root>
        <mxCell id="0" />
        <mxCell id="1" parent="0" />
        <mxCell id="bfkDFO_SThVbLGaq-HxU-64" value="" style="html=1;whiteSpace=wrap;fillColor=#495E5B;" parent="1" vertex="1">
          <mxGeometry x="-51" y="158" width="80" height="580" as="geometry" />
        </mxCell>
        <mxCell id="bfkDFO_SThVbLGaq-HxU-4" value="" style="rounded=0;whiteSpace=wrap;html=1;fillColor=#2A2333;strokeColor=default;" parent="1" vertex="1">
          <mxGeometry x="79" y="118" width="790" height="620" as="geometry" />
        </mxCell>
        <mxCell id="bfkDFO_SThVbLGaq-HxU-5" value="&lt;font color=&quot;#030303&quot; style=&quot;font-size: 18px;&quot;&gt;COAP SERVER&lt;/font&gt;" style="rounded=0;whiteSpace=wrap;html=1;fillColor=#dae8fc;strokeColor=#6c8ebf;" parent="1" vertex="1">
          <mxGeometry x="69" y="118" width="810" height="40" as="geometry" />
        </mxCell>
        <mxCell id="bfkDFO_SThVbLGaq-HxU-9" value="MAIN THREAD" style="shape=umlLifeline;perimeter=lifelinePerimeter;whiteSpace=wrap;html=1;container=1;dropTarget=0;collapsible=0;recursiveResize=0;outlineConnect=0;portConstraint=eastwest;newEdgeStyle={&quot;curved&quot;:0,&quot;rounded&quot;:0};fillColor=#D5E8D4;strokeColor=#95CCFF;fontColor=#000000;" parent="1" vertex="1">
          <mxGeometry x="129" y="178" width="100" height="520" as="geometry" />
        </mxCell>
        <mxCell id="bfkDFO_SThVbLGaq-HxU-12" value="" style="html=1;points=[[0,0,0,0,5],[0,1,0,0,-5],[1,0,0,0,5],[1,1,0,0,-5]];perimeter=orthogonalPerimeter;outlineConnect=0;targetShapes=umlLifeline;portConstraint=eastwest;newEdgeStyle={&quot;curved&quot;:0,&quot;rounded&quot;:0};fillColor=#ffcc99;strokeColor=#36393d;" parent="bfkDFO_SThVbLGaq-HxU-9" vertex="1">
          <mxGeometry x="45" y="80" width="10" height="30" as="geometry" />
        </mxCell>
        <mxCell id="bfkDFO_SThVbLGaq-HxU-13" value="&lt;span style=&quot;background-color: rgb(185, 224, 165);&quot;&gt;&lt;font color=&quot;#000000&quot;&gt;&amp;nbsp;wait requests&amp;nbsp;&lt;/font&gt;&lt;/span&gt;" style="html=1;align=left;spacingLeft=2;endArrow=block;rounded=0;edgeStyle=orthogonalEdgeStyle;curved=0;rounded=0;exitX=0.5;exitY=0.105;exitDx=0;exitDy=0;exitPerimeter=0;strokeColor=#F0C89A;" parent="bfkDFO_SThVbLGaq-HxU-9" source="bfkDFO_SThVbLGaq-HxU-9" target="bfkDFO_SThVbLGaq-HxU-12" edge="1">
          <mxGeometry x="-0.5398" y="-10" relative="1" as="geometry">
            <mxPoint x="60" y="60" as="sourcePoint" />
            <Array as="points">
              <mxPoint x="90" y="60" />
              <mxPoint x="90" y="90" />
            </Array>
            <mxPoint as="offset" />
          </mxGeometry>
        </mxCell>
        <mxCell id="bfkDFO_SThVbLGaq-HxU-59" value="" style="html=1;points=[[0,0,0,0,5],[0,1,0,0,-5],[1,0,0,0,5],[1,1,0,0,-5]];perimeter=orthogonalPerimeter;outlineConnect=0;targetShapes=umlLifeline;portConstraint=eastwest;newEdgeStyle={&quot;curved&quot;:0,&quot;rounded&quot;:0};fillColor=#ffcc99;strokeColor=#36393d;" parent="bfkDFO_SThVbLGaq-HxU-9" vertex="1">
          <mxGeometry x="45" y="240" width="10" height="250" as="geometry" />
        </mxCell>
        <mxCell id="bfkDFO_SThVbLGaq-HxU-60" value="&lt;span style=&quot;background-color: rgb(185, 224, 165);&quot;&gt;&lt;font color=&quot;#000000&quot;&gt;&amp;nbsp;wait requests&amp;nbsp;&lt;/font&gt;&lt;/span&gt;" style="html=1;align=left;spacingLeft=2;endArrow=block;rounded=0;edgeStyle=orthogonalEdgeStyle;curved=0;rounded=0;fillColor=#ffcc99;strokeColor=#F0C89A;" parent="bfkDFO_SThVbLGaq-HxU-9" target="bfkDFO_SThVbLGaq-HxU-59" edge="1">
          <mxGeometry x="-0.7648" y="-10" relative="1" as="geometry">
            <mxPoint x="50" y="220" as="sourcePoint" />
            <Array as="points">
              <mxPoint x="80" y="250" />
            </Array>
            <mxPoint as="offset" />
          </mxGeometry>
        </mxCell>
        <mxCell id="bfkDFO_SThVbLGaq-HxU-15" value="&lt;font color=&quot;#000000&quot;&gt;COAP CLIENT&lt;/font&gt;" style="shape=umlLifeline;perimeter=lifelinePerimeter;whiteSpace=wrap;html=1;container=1;dropTarget=0;collapsible=0;recursiveResize=0;outlineConnect=0;portConstraint=eastwest;newEdgeStyle={&quot;curved&quot;:0,&quot;rounded&quot;:0};fillColor=#b9e2a6;strokeColor=#94ffb8;" parent="1" vertex="1">
          <mxGeometry x="-61" y="118" width="100" height="580" as="geometry" />
        </mxCell>
        <mxCell id="bfkDFO_SThVbLGaq-HxU-68" value="" style="html=1;points=[[0,0,0,0,5],[0,1,0,0,-5],[1,0,0,0,5],[1,1,0,0,-5]];perimeter=orthogonalPerimeter;outlineConnect=0;targetShapes=umlLifeline;portConstraint=eastwest;newEdgeStyle={&quot;curved&quot;:0,&quot;rounded&quot;:0};strokeColor=#fccf9b;fillColor=#fccf9b;" parent="bfkDFO_SThVbLGaq-HxU-15" vertex="1">
          <mxGeometry x="45" y="270" width="10" height="220" as="geometry" />
        </mxCell>
        <mxCell id="bfkDFO_SThVbLGaq-HxU-69" value="&lt;span style=&quot;background-color: rgb(185, 224, 165);&quot;&gt;&lt;font color=&quot;#000000&quot;&gt;wait&lt;/font&gt;&lt;/span&gt;" style="html=1;align=left;spacingLeft=2;endArrow=block;rounded=0;edgeStyle=orthogonalEdgeStyle;curved=0;rounded=0;strokeColor=#fccf9b;" parent="bfkDFO_SThVbLGaq-HxU-15" target="bfkDFO_SThVbLGaq-HxU-68" edge="1">
          <mxGeometry x="-0.7647" y="-10" relative="1" as="geometry">
            <mxPoint x="50" y="250" as="sourcePoint" />
            <Array as="points">
              <mxPoint x="80" y="280" />
            </Array>
            <mxPoint as="offset" />
          </mxGeometry>
        </mxCell>
        <mxCell id="bfkDFO_SThVbLGaq-HxU-16" value="&lt;span style=&quot;background-color: rgb(185, 224, 165);&quot;&gt;&lt;font color=&quot;#000000&quot;&gt;&amp;nbsp;request&amp;nbsp;&lt;/font&gt;&lt;/span&gt;" style="html=1;verticalAlign=bottom;endArrow=block;curved=0;rounded=0;strokeColor=#F0C89A;" parent="1" source="bfkDFO_SThVbLGaq-HxU-15" target="bfkDFO_SThVbLGaq-HxU-9" edge="1">
          <mxGeometry x="0.0023" y="-10" width="80" relative="1" as="geometry">
            <mxPoint x="19" y="408" as="sourcePoint" />
            <mxPoint x="159" y="298" as="targetPoint" />
            <Array as="points">
              <mxPoint x="-1" y="298" />
              <mxPoint x="39" y="298" />
            </Array>
            <mxPoint as="offset" />
          </mxGeometry>
        </mxCell>
        <mxCell id="bfkDFO_SThVbLGaq-HxU-18" value="&lt;font style=&quot;font-size: 9px;&quot;&gt;REQUESTS QUEUE&lt;/font&gt;" style="rounded=0;whiteSpace=wrap;html=1;fillColor=#d5e8d4;strokeColor=#82b366;fontColor=#000000;" parent="1" vertex="1">
          <mxGeometry x="279" y="318" width="90" height="20" as="geometry" />
        </mxCell>
        <mxCell id="bfkDFO_SThVbLGaq-HxU-21" value="&lt;font color=&quot;#000000&quot;&gt;Thread Pool&lt;br&gt;Manager&lt;/font&gt;" style="shape=umlLifeline;perimeter=lifelinePerimeter;whiteSpace=wrap;html=1;container=1;dropTarget=0;collapsible=0;recursiveResize=0;outlineConnect=0;portConstraint=eastwest;newEdgeStyle={&quot;curved&quot;:0,&quot;rounded&quot;:0};fillColor=#7EA6E0;fontColor=#ffffff;strokeColor=#bdd8ff;" parent="1" vertex="1">
          <mxGeometry x="329" y="178" width="100" height="520" as="geometry" />
        </mxCell>
        <mxCell id="bfkDFO_SThVbLGaq-HxU-24" value="" style="html=1;points=[[0,0,0,0,5],[0,1,0,0,-5],[1,0,0,0,5],[1,1,0,0,-5]];perimeter=orthogonalPerimeter;outlineConnect=0;targetShapes=umlLifeline;portConstraint=eastwest;newEdgeStyle={&quot;curved&quot;:0,&quot;rounded&quot;:0};fillColor=#ffcc99;strokeColor=#36393d;" parent="bfkDFO_SThVbLGaq-HxU-21" vertex="1">
          <mxGeometry x="45" y="90" width="10" height="100" as="geometry" />
        </mxCell>
        <mxCell id="bfkDFO_SThVbLGaq-HxU-25" value="&lt;font style=&quot;background-color: rgb(185, 224, 165);&quot; color=&quot;#000000&quot;&gt;wait awake&lt;/font&gt;" style="html=1;align=left;spacingLeft=2;endArrow=block;rounded=0;edgeStyle=orthogonalEdgeStyle;curved=0;rounded=0;fillColor=#ffcc99;strokeColor=#F0C89A;" parent="bfkDFO_SThVbLGaq-HxU-21" target="bfkDFO_SThVbLGaq-HxU-24" edge="1">
          <mxGeometry x="-1" y="-14" relative="1" as="geometry">
            <mxPoint x="50" y="70" as="sourcePoint" />
            <Array as="points">
              <mxPoint x="50" y="60" />
              <mxPoint x="85" y="60" />
              <mxPoint x="85" y="100" />
            </Array>
            <mxPoint x="-4" y="10" as="offset" />
          </mxGeometry>
        </mxCell>
        <mxCell id="bfkDFO_SThVbLGaq-HxU-23" value="&lt;span style=&quot;background-color: rgb(185, 224, 165);&quot;&gt;&lt;font color=&quot;#000000&quot;&gt;send awake&lt;/font&gt;&lt;/span&gt;" style="html=1;verticalAlign=bottom;endArrow=block;rounded=0;entryX=0.5;entryY=0.306;entryDx=0;entryDy=0;entryPerimeter=0;fillColor=#ffcc99;strokeColor=#F0C89A;" parent="1" edge="1">
          <mxGeometry x="0.0006" y="-10" width="80" relative="1" as="geometry">
            <mxPoint x="178.92857142857144" y="378" as="sourcePoint" />
            <mxPoint x="379" y="378.36" as="targetPoint" />
            <Array as="points">
              <mxPoint x="219" y="378" />
            </Array>
            <mxPoint as="offset" />
          </mxGeometry>
        </mxCell>
        <mxCell id="bfkDFO_SThVbLGaq-HxU-26" value="Deduplicator" style="html=1;whiteSpace=wrap;fillColor=#fff2cc;strokeColor=#d6b656;fontColor=#000000;" parent="1" vertex="1">
          <mxGeometry x="339" y="408" width="80" height="20" as="geometry" />
        </mxCell>
        <mxCell id="bfkDFO_SThVbLGaq-HxU-27" value="Workload&lt;br&gt;Analizer" style="html=1;whiteSpace=wrap;fillColor=#ffff88;strokeColor=#36393d;fontColor=#000000;" parent="1" vertex="1">
          <mxGeometry x="339" y="448" width="80" height="30" as="geometry" />
        </mxCell>
        <mxCell id="bfkDFO_SThVbLGaq-HxU-28" value="&lt;font color=&quot;#000000&quot;&gt;Worker Thread i&lt;/font&gt;" style="shape=umlLifeline;perimeter=lifelinePerimeter;whiteSpace=wrap;html=1;container=1;dropTarget=0;collapsible=0;recursiveResize=0;outlineConnect=0;portConstraint=eastwest;newEdgeStyle={&quot;curved&quot;:0,&quot;rounded&quot;:0};fillColor=#647687;fontColor=#ffffff;strokeColor=#95CCFF;" parent="1" vertex="1">
          <mxGeometry x="509" y="178" width="100" height="520" as="geometry" />
        </mxCell>
        <mxCell id="bfkDFO_SThVbLGaq-HxU-33" value="" style="html=1;points=[[0,0,0,0,5],[0,1,0,0,-5],[1,0,0,0,5],[1,1,0,0,-5]];perimeter=orthogonalPerimeter;outlineConnect=0;targetShapes=umlLifeline;portConstraint=eastwest;newEdgeStyle={&quot;curved&quot;:0,&quot;rounded&quot;:0};fillColor=#ffcc99;strokeColor=#36393d;" parent="bfkDFO_SThVbLGaq-HxU-28" vertex="1">
          <mxGeometry x="45" y="90" width="10" height="160" as="geometry" />
        </mxCell>
        <mxCell id="bfkDFO_SThVbLGaq-HxU-34" value="&lt;font style=&quot;background-color: rgb(185, 224, 165);&quot; color=&quot;#000000&quot;&gt;wait awake&lt;/font&gt;" style="html=1;align=left;spacingLeft=2;endArrow=block;rounded=0;edgeStyle=orthogonalEdgeStyle;curved=0;rounded=0;strokeColor=#F0C89A;" parent="bfkDFO_SThVbLGaq-HxU-28" target="bfkDFO_SThVbLGaq-HxU-33" edge="1">
          <mxGeometry x="-1" y="-14" relative="1" as="geometry">
            <mxPoint x="50" y="70" as="sourcePoint" />
            <Array as="points">
              <mxPoint x="50" y="70" />
              <mxPoint x="50" y="60" />
              <mxPoint x="85" y="60" />
              <mxPoint x="85" y="100" />
            </Array>
            <mxPoint x="-4" y="10" as="offset" />
          </mxGeometry>
        </mxCell>
        <mxCell id="bfkDFO_SThVbLGaq-HxU-31" value="&lt;font style=&quot;background-color: rgb(185, 224, 165);&quot; color=&quot;#000000&quot;&gt;send awake&lt;/font&gt;" style="html=1;verticalAlign=bottom;endArrow=block;curved=0;rounded=0;strokeColor=#F0C89A;" parent="1" edge="1">
          <mxGeometry x="0.0059" y="-5" width="80" relative="1" as="geometry">
            <mxPoint x="419" y="452.82" as="sourcePoint" />
            <mxPoint x="558.5" y="452.82" as="targetPoint" />
            <Array as="points">
              <mxPoint x="449" y="452.82" />
              <mxPoint x="539" y="452.82" />
            </Array>
            <mxPoint as="offset" />
          </mxGeometry>
        </mxCell>
        <mxCell id="bfkDFO_SThVbLGaq-HxU-32" value="&lt;font style=&quot;font-size: 9px;&quot;&gt;REQUESTS QUEUE&lt;/font&gt;" style="rounded=0;whiteSpace=wrap;html=1;fillColor=#d5e8d4;strokeColor=#82b366;fontColor=#000000;" parent="1" vertex="1">
          <mxGeometry x="389" y="508" width="90" height="20" as="geometry" />
        </mxCell>
        <mxCell id="bfkDFO_SThVbLGaq-HxU-35" value="&lt;font style=&quot;background-color: rgb(185, 224, 165);&quot; color=&quot;#000000&quot;&gt;pull lock&lt;/font&gt;" style="html=1;verticalAlign=bottom;endArrow=block;curved=0;rounded=0;entryX=1;entryY=0.5;entryDx=0;entryDy=0;strokeColor=#F0C89A;" parent="1" source="bfkDFO_SThVbLGaq-HxU-28" target="bfkDFO_SThVbLGaq-HxU-32" edge="1">
          <mxGeometry x="-0.2121" y="10" width="80" relative="1" as="geometry">
            <mxPoint x="289" y="408" as="sourcePoint" />
            <mxPoint x="369" y="408" as="targetPoint" />
            <mxPoint as="offset" />
          </mxGeometry>
        </mxCell>
        <mxCell id="bfkDFO_SThVbLGaq-HxU-36" value="Process" style="html=1;whiteSpace=wrap;fillColor=#f8cecc;strokeColor=#b85450;fontColor=#000000;" parent="1" vertex="1">
          <mxGeometry x="534" y="548" width="50" height="30" as="geometry" />
        </mxCell>
        <mxCell id="bfkDFO_SThVbLGaq-HxU-38" value="" style="edgeStyle=orthogonalEdgeStyle;rounded=0;orthogonalLoop=1;jettySize=auto;html=1;strokeColor=#F0C89A;exitX=1;exitY=0.5;exitDx=0;exitDy=0;" parent="1" source="bfkDFO_SThVbLGaq-HxU-56" target="bfkDFO_SThVbLGaq-HxU-18" edge="1">
          <mxGeometry relative="1" as="geometry">
            <mxPoint x="209" y="328" as="sourcePoint" />
          </mxGeometry>
        </mxCell>
        <mxCell id="bfkDFO_SThVbLGaq-HxU-39" value="&amp;nbsp;request&amp;nbsp;&lt;br&gt;&lt;span style=&quot;&quot;&gt;object&lt;/span&gt;" style="edgeLabel;html=1;align=center;verticalAlign=middle;resizable=0;points=[];labelBackgroundColor=#B9E0A5;fontColor=#000000;" parent="bfkDFO_SThVbLGaq-HxU-38" vertex="1" connectable="0">
          <mxGeometry x="-0.0922" y="1" relative="1" as="geometry">
            <mxPoint as="offset" />
          </mxGeometry>
        </mxCell>
        <mxCell id="bfkDFO_SThVbLGaq-HxU-40" value="&lt;span style=&quot;background-color: rgb(185, 224, 165);&quot;&gt;&lt;font color=&quot;#000000&quot;&gt;&amp;nbsp;RST/ACK&amp;nbsp;&lt;/font&gt;&lt;/span&gt;" style="html=1;verticalAlign=bottom;endArrow=block;curved=0;rounded=0;strokeColor=#F0C89A;" parent="1" target="bfkDFO_SThVbLGaq-HxU-15" edge="1">
          <mxGeometry x="-0.0038" y="10" width="80" relative="1" as="geometry">
            <mxPoint x="178.5" y="358" as="sourcePoint" />
            <mxPoint x="-41.333333333333485" y="358" as="targetPoint" />
            <mxPoint as="offset" />
          </mxGeometry>
        </mxCell>
        <mxCell id="bfkDFO_SThVbLGaq-HxU-45" value="&lt;span style=&quot;background-color: rgb(185, 224, 165);&quot;&gt;&lt;font color=&quot;#000000&quot;&gt;response&lt;/font&gt;&lt;/span&gt;" style="html=1;verticalAlign=bottom;endArrow=block;curved=0;rounded=0;exitX=0;exitY=0.5;exitDx=0;exitDy=0;strokeColor=#F0C89A;" parent="1" source="bfkDFO_SThVbLGaq-HxU-55" target="bfkDFO_SThVbLGaq-HxU-15" edge="1">
          <mxGeometry x="0.0175" y="5" width="80" relative="1" as="geometry">
            <mxPoint x="558.5" y="608" as="sourcePoint" />
            <mxPoint x="-41" y="613" as="targetPoint" />
            <Array as="points">
              <mxPoint x="79" y="613" />
            </Array>
            <mxPoint as="offset" />
          </mxGeometry>
        </mxCell>
        <mxCell id="bfkDFO_SThVbLGaq-HxU-46" value="Worker Thread n" style="shape=umlLifeline;perimeter=lifelinePerimeter;whiteSpace=wrap;html=1;container=1;dropTarget=0;collapsible=0;recursiveResize=0;outlineConnect=0;portConstraint=eastwest;newEdgeStyle={&quot;curved&quot;:0,&quot;rounded&quot;:0};fillColor=#647687;fontColor=#000000;strokeColor=#95CBFF;" parent="1" vertex="1">
          <mxGeometry x="699" y="178" width="100" height="520" as="geometry" />
        </mxCell>
        <mxCell id="bfkDFO_SThVbLGaq-HxU-47" value="" style="html=1;points=[[0,0,0,0,5],[0,1,0,0,-5],[1,0,0,0,5],[1,1,0,0,-5]];perimeter=orthogonalPerimeter;outlineConnect=0;targetShapes=umlLifeline;portConstraint=eastwest;newEdgeStyle={&quot;curved&quot;:0,&quot;rounded&quot;:0};fillColor=#ffcc99;strokeColor=#36393d;" parent="bfkDFO_SThVbLGaq-HxU-46" vertex="1">
          <mxGeometry x="45" y="90" width="10" height="200" as="geometry" />
        </mxCell>
        <mxCell id="bfkDFO_SThVbLGaq-HxU-48" value="&lt;font style=&quot;background-color: rgb(185, 224, 165);&quot; color=&quot;#000000&quot;&gt;wait awake&lt;/font&gt;" style="html=1;align=left;spacingLeft=2;endArrow=block;rounded=0;edgeStyle=orthogonalEdgeStyle;curved=0;rounded=0;strokeColor=#F0C89A;" parent="bfkDFO_SThVbLGaq-HxU-46" target="bfkDFO_SThVbLGaq-HxU-47" edge="1">
          <mxGeometry x="-1" y="-14" relative="1" as="geometry">
            <mxPoint x="50" y="70" as="sourcePoint" />
            <Array as="points">
              <mxPoint x="50" y="70" />
              <mxPoint x="50" y="60" />
              <mxPoint x="85" y="60" />
              <mxPoint x="85" y="100" />
            </Array>
            <mxPoint x="-4" y="10" as="offset" />
          </mxGeometry>
        </mxCell>
        <mxCell id="bfkDFO_SThVbLGaq-HxU-49" value="&lt;span style=&quot;background-color: rgb(185, 224, 165);&quot;&gt;&lt;font color=&quot;#000000&quot;&gt;pull lock&lt;/font&gt;&lt;/span&gt;" style="html=1;verticalAlign=bottom;endArrow=block;curved=0;rounded=0;entryX=1;entryY=0.5;entryDx=0;entryDy=0;strokeColor=#F0C89A;" parent="1" source="bfkDFO_SThVbLGaq-HxU-46" target="bfkDFO_SThVbLGaq-HxU-52" edge="1">
          <mxGeometry x="-0.2121" y="10" width="80" relative="1" as="geometry">
            <mxPoint x="479" y="408" as="sourcePoint" />
            <mxPoint x="699" y="518" as="targetPoint" />
            <mxPoint as="offset" />
          </mxGeometry>
        </mxCell>
        <mxCell id="bfkDFO_SThVbLGaq-HxU-51" value="Message&amp;nbsp;&lt;br&gt;Interpreter" style="html=1;whiteSpace=wrap;fillColor=#ffe6cc;strokeColor=#d79b00;fontColor=#000000;" parent="1" vertex="1">
          <mxGeometry x="719" y="638" width="60" height="30" as="geometry" />
        </mxCell>
        <mxCell id="bfkDFO_SThVbLGaq-HxU-52" value="&lt;font style=&quot;font-size: 9px;&quot;&gt;REQUESTS QUEUE&lt;/font&gt;" style="rounded=0;whiteSpace=wrap;html=1;fillColor=#d5e8d4;strokeColor=#82b366;fontColor=#000000;" parent="1" vertex="1">
          <mxGeometry x="584" y="508" width="90" height="20" as="geometry" />
        </mxCell>
        <mxCell id="bfkDFO_SThVbLGaq-HxU-53" value="&lt;span style=&quot;background-color: rgb(185, 224, 165);&quot;&gt;&lt;font color=&quot;#000000&quot;&gt;response&lt;/font&gt;&lt;/span&gt;" style="html=1;verticalAlign=bottom;endArrow=block;curved=0;rounded=0;strokeColor=#F0C89A;" parent="1" target="bfkDFO_SThVbLGaq-HxU-15" edge="1">
          <mxGeometry y="5" width="80" relative="1" as="geometry">
            <mxPoint x="719" y="653" as="sourcePoint" />
            <mxPoint x="-41" y="652.62" as="targetPoint" />
            <Array as="points">
              <mxPoint x="79.5" y="652.62" />
            </Array>
            <mxPoint as="offset" />
          </mxGeometry>
        </mxCell>
        <mxCell id="bfkDFO_SThVbLGaq-HxU-54" value="&lt;span style=&quot;background-color: rgb(185, 224, 165);&quot;&gt;&lt;font color=&quot;#000000&quot;&gt;send awake thread i ocupied&lt;/font&gt;&lt;/span&gt;" style="html=1;verticalAlign=bottom;endArrow=block;curved=0;rounded=0;exitX=1.002;exitY=0.905;exitDx=0;exitDy=0;exitPerimeter=0;strokeColor=#F0C89A;" parent="1" source="bfkDFO_SThVbLGaq-HxU-27" edge="1">
          <mxGeometry x="0.2743" y="-13" width="80" relative="1" as="geometry">
            <mxPoint x="429" y="476" as="sourcePoint" />
            <mxPoint x="748.5" y="475.5" as="targetPoint" />
            <Array as="points">
              <mxPoint x="459" y="475.5" />
              <mxPoint x="499" y="475.5" />
              <mxPoint x="549" y="475.5" />
            </Array>
            <mxPoint as="offset" />
          </mxGeometry>
        </mxCell>
        <mxCell id="bfkDFO_SThVbLGaq-HxU-55" value="Message&amp;nbsp;&lt;br&gt;Interpreter" style="html=1;whiteSpace=wrap;fillColor=#ffe6cc;strokeColor=#d79b00;fontColor=#000000;" parent="1" vertex="1">
          <mxGeometry x="529" y="598" width="60" height="30" as="geometry" />
        </mxCell>
        <mxCell id="bfkDFO_SThVbLGaq-HxU-56" value="Message&amp;nbsp;&lt;br&gt;Interpreter" style="html=1;whiteSpace=wrap;fillColor=#ffe6cc;strokeColor=#d79b00;fontColor=#000000;" parent="1" vertex="1">
          <mxGeometry x="139" y="313" width="60" height="30" as="geometry" />
        </mxCell>
        <mxCell id="bfkDFO_SThVbLGaq-HxU-57" value="Process" style="html=1;whiteSpace=wrap;fillColor=#f8cecc;strokeColor=#b85450;fontColor=#000000;" parent="1" vertex="1">
          <mxGeometry x="724" y="548" width="50" height="30" as="geometry" />
        </mxCell>
        <mxCell id="bfkDFO_SThVbLGaq-HxU-65" value="" style="html=1;points=[[0,0,0,0,5],[0,1,0,0,-5],[1,0,0,0,5],[1,1,0,0,-5]];perimeter=orthogonalPerimeter;outlineConnect=0;targetShapes=umlLifeline;portConstraint=eastwest;newEdgeStyle={&quot;curved&quot;:0,&quot;rounded&quot;:0};strokeColor=#FFD966;fillColor=#fccf9b;" parent="1" vertex="1">
          <mxGeometry x="-16" y="323" width="10" height="20" as="geometry" />
        </mxCell>
        <mxCell id="bfkDFO_SThVbLGaq-HxU-66" value="&lt;font style=&quot;background-color: rgb(185, 224, 165);&quot; color=&quot;#000000&quot;&gt;wait&lt;/font&gt;" style="html=1;align=left;spacingLeft=2;endArrow=block;rounded=0;edgeStyle=orthogonalEdgeStyle;curved=0;rounded=0;strokeColor=#f9d29d;" parent="1" target="bfkDFO_SThVbLGaq-HxU-65" edge="1">
          <mxGeometry y="-10" relative="1" as="geometry">
            <mxPoint x="-11" y="308" as="sourcePoint" />
            <Array as="points">
              <mxPoint x="9" y="308" />
              <mxPoint x="9" y="333" />
            </Array>
            <mxPoint as="offset" />
          </mxGeometry>
        </mxCell>
      </root>
    </mxGraphModel>
  </diagram>
</mxfile>
